# xmcd
#
# Track frame offsets:
#	150
#	14561
#	28060
#	45369
#	57391
#	69305
#	84978
#	102238
#	114511
#	129431
#	146218
#	159776
#
# Disc length: 2384 seconds
#
# Revision: 1
# Processed by: cddbd v1.4PL0 Copyright (c) Steve Scherf et al.
# Submitted via: EasyCDDAExtractor 5.0.7
#
DISCID=98094e0c
DTITLE=Bill Haas - Hozzola: The Unauthorized Autobiography
DYEAR=2002
DGENRE=Blues
TTITLE0=Know Different
TTITLE1=Jelly from a Jar
TTITLE2=Spies
TTITLE3=Mystery Song
TTITLE4=Martyrdom
TTITLE5=Secret Rose
TTITLE6=Double My Trouble
TTITLE7=The Blues... On You
TTITLE8=Slave
TTITLE9=Big Fat Liar
TTITLE10=Baby
TTITLE11=A Hundred Dollars
EXTD=
EXTT0=
EXTT1=
EXTT2=
EXTT3=
EXTT4=
EXTT5=
EXTT6=
EXTT7=
EXTT8=
EXTT9=
EXTT10=
EXTT11=
PLAYORDER=
